<?xml version="1.0" encoding="utf-8"?>
<!-- Generator: Adobe Illustrator 24.1.2, SVG Export Plug-In . SVG Version: 6.00 Build 0)  -->
<svg version="1.1" id="Layer_2" xmlns="http://www.w3.org/2000/svg" xmlns:xlink="http://www.w3.org/1999/xlink" x="0px" y="0px"
	 viewBox="0 0 1929.4 711.2" style="enable-background:new 0 0 1929.4 711.2;" xml:space="preserve">
<style type="text/css">
	.st0{fill:#CCCCCC;}
</style>
<path class="st0" d="M1883.8,249.4H45.7C20.4,249.4,0,229,0,203.8V45.7C0,20.4,20.4,0,45.7,0h1838.1c25.2,0,45.7,20.4,45.7,45.7
	v158.1C1929.4,229,1909,249.4,1883.8,249.4z"/>
<path class="st0" d="M1883.8,711.2H443.7c-25.2,0-45.7-20.4-45.7-45.7V507.4c0-25.2,20.4-45.7,45.7-45.7h1440.1
	c25.2,0,45.7,20.4,45.7,45.7v158.1C1929.4,690.7,1909,711.2,1883.8,711.2z"/>
<g>
</g>
<g>
</g>
<g>
</g>
<g>
</g>
<g>
</g>
</svg>
