<?xml version="1.0" encoding="utf-8"?>
<!-- Generator: Adobe Illustrator 24.1.2, SVG Export Plug-In . SVG Version: 6.00 Build 0)  -->
<svg version="1.1" id="Layer_2" xmlns="http://www.w3.org/2000/svg" xmlns:xlink="http://www.w3.org/1999/xlink" x="0px" y="0px"
	 viewBox="0 0 2000 2000" style="enable-background:new 0 0 2000 2000;" xml:space="preserve">
<style type="text/css">
	.st0{fill:#CCCCCC;}
</style>
<path class="st0" d="M1921.5,894.3H83.4c-25.2,0-45.7-20.4-45.7-45.7V690.6c0-25.2,20.4-45.7,45.7-45.7h1838.1
	c25.2,0,45.7,20.4,45.7,45.7v158.1C1967.2,873.9,1946.7,894.3,1921.5,894.3z"/>
<path class="st0" d="M1921.5,1356.1H481.4c-25.2,0-45.7-20.4-45.7-45.7v-158.1c0-25.2,20.4-45.7,45.7-45.7h1440.1
	c25.2,0,45.7,20.4,45.7,45.7v158.1C1967.2,1335.6,1946.7,1356.1,1921.5,1356.1z"/>
<g>
</g>
<g>
</g>
<g>
</g>
<g>
</g>
<g>
</g>
</svg>
